<svg width="81" height="80" viewBox="0 0 81 80" fill="none" xmlns="http://www.w3.org/2000/svg">
<path d="M66.2812 13.75V15.4687C66.2812 15.6967 66.1907 15.9152 66.0295 16.0764C65.8684 16.2376 65.6498 16.3281 65.4219 16.3281H62.8438V17.6172C62.8438 18.3291 62.2666 18.9062 61.5547 18.9062H19.4453C18.7334 18.9062 18.1562 18.3291 18.1562 17.6172V16.3281H15.5781C15.3502 16.3281 15.1316 16.2376 14.9705 16.0764C14.8093 15.9152 14.7188 15.6967 14.7188 15.4687V13.75C14.7188 13.58 14.7692 13.4138 14.8637 13.2724C14.9581 13.1311 15.0924 13.0209 15.2495 12.9559L40.1714 3.50281C40.3818 3.41573 40.6182 3.41573 40.8286 3.50281L65.7505 12.9559C65.9076 13.0209 66.0419 13.1311 66.1363 13.2724C66.2308 13.4138 66.2812 13.58 66.2812 13.75ZM63.7031 46.4062H17.2969C15.873 46.4062 14.7188 47.5605 14.7188 48.9844V50.7031C14.7188 50.931 14.8093 51.1496 14.9705 51.3108C15.1316 51.472 15.3502 51.5625 15.5781 51.5625H65.4219C65.6498 51.5625 65.8684 51.472 66.0295 51.3108C66.1907 51.1496 66.2812 50.931 66.2812 50.7031V48.9844C66.2812 47.5605 65.127 46.4062 63.7031 46.4062ZM23.3125 20.625V41.25H19.4453C18.7334 41.25 18.1562 41.8272 18.1562 42.5391V44.6875H62.8438V42.5391C62.8438 41.8272 62.2666 41.25 61.5547 41.25H57.6875V20.625H50.8125V41.25H43.9375V20.625H37.0625V41.25H30.1875V20.625H23.3125Z" fill="#E6C4FF"/>
<path d="M4.93769 72.304V69.104C4.93769 67.6213 4.90035 66.3947 4.82569 65.424C5.14569 65.3707 5.42835 65.344 5.67369 65.344C6.38835 65.344 6.74569 65.5467 6.74569 65.952C6.74569 66.016 6.73502 66.2453 6.71369 66.64C6.69235 67.024 6.67102 67.4987 6.64969 68.064C6.62835 68.6293 6.61769 69.1573 6.61769 69.648C7.19369 69.6587 7.95102 69.664 8.88969 69.664C9.82835 69.664 10.5644 69.6587 11.0977 69.648V69.104C11.0977 67.6213 11.0604 66.3947 10.9857 65.424C11.3057 65.3707 11.5884 65.344 11.8337 65.344C12.5484 65.344 12.9057 65.5467 12.9057 65.952C12.9057 66.016 12.895 66.2347 12.8737 66.608C12.8524 66.9707 12.831 67.4293 12.8097 67.984C12.7884 68.528 12.7777 69.0453 12.7777 69.536V72.752C12.7777 74.1707 12.879 75.216 13.0817 75.888C12.783 75.9947 12.4524 76.048 12.0897 76.048C11.695 76.048 11.423 75.9787 11.2737 75.84C11.135 75.7013 11.0657 75.4667 11.0657 75.136C11.0657 74.9653 11.071 74.544 11.0817 73.872C11.0924 73.2 11.0977 72.6773 11.0977 72.304V70.832C10.5537 70.8427 9.80169 70.848 8.84169 70.848C7.90302 70.848 7.16169 70.8427 6.61769 70.832V72.752C6.61769 74.1707 6.71902 75.216 6.92169 75.888C6.62302 75.9947 6.29235 76.048 5.92969 76.048C5.53502 76.048 5.26302 75.9787 5.11369 75.84C4.97502 75.7013 4.90569 75.4667 4.90569 75.136C4.90569 74.9653 4.91102 74.544 4.92169 73.872C4.93235 73.2 4.93769 72.6773 4.93769 72.304ZM19.6886 76.16C18.1526 76.16 16.9259 75.664 16.0086 74.672C15.1019 73.68 14.6486 72.3573 14.6486 70.704C14.6486 69.0293 15.1019 67.7013 16.0086 66.72C16.9259 65.728 18.1526 65.232 19.6886 65.232C21.2459 65.232 22.4832 65.728 23.4006 66.72C24.3179 67.7013 24.7766 69.0293 24.7766 70.704C24.7766 72.3573 24.3126 73.68 23.3846 74.672C22.4672 75.664 21.2352 76.16 19.6886 76.16ZM22.9526 70.976C22.9526 70.208 22.8512 69.504 22.6486 68.864C22.4566 68.2133 22.1046 67.6587 21.5926 67.2C21.0912 66.7307 20.4672 66.496 19.7206 66.496C18.7286 66.496 17.9392 66.848 17.3526 67.552C16.7659 68.2453 16.4726 69.1413 16.4726 70.24C16.4726 71.04 16.5686 71.776 16.7606 72.448C16.9632 73.12 17.3152 73.696 17.8166 74.176C18.3286 74.656 18.9579 74.896 19.7046 74.896C20.7392 74.896 21.5392 74.5333 22.1046 73.808C22.6699 73.0827 22.9526 72.1387 22.9526 70.976ZM38.5177 65.344C38.8057 65.2693 39.099 65.232 39.3977 65.232C39.739 65.232 39.979 65.2907 40.1177 65.408C40.2564 65.5253 40.3257 65.728 40.3257 66.016C40.3257 67.1893 39.9737 68.7627 39.2697 70.736C38.5657 72.6987 37.8457 74.176 37.1097 75.168C36.8537 75.52 36.619 75.7547 36.4057 75.872C36.1924 75.9893 35.9417 76.048 35.6537 76.048C35.3977 76.048 35.2057 76.032 35.0777 76C34.715 74.112 34.1177 72.0267 33.2857 69.744C32.955 70.8 32.5657 71.8293 32.1177 72.832C31.6697 73.824 31.2324 74.6027 30.8057 75.168C30.5497 75.52 30.315 75.7547 30.1017 75.872C29.8884 75.9893 29.6377 76.048 29.3497 76.048C29.0937 76.048 28.9017 76.032 28.7737 76C28.4537 74.2827 27.9044 72.32 27.1257 70.112C26.3577 67.904 25.7017 66.5173 25.1577 65.952C25.723 65.536 26.1977 65.328 26.5817 65.328C26.9977 65.328 27.291 65.5253 27.4617 65.92C27.8564 66.8373 28.2937 68.0907 28.7737 69.68C29.2537 71.2693 29.6484 72.736 29.9577 74.08C30.5977 73.056 31.1417 71.76 31.5897 70.192C32.0484 68.624 32.2777 67.2693 32.2777 66.128C32.2777 65.7547 32.2564 65.4933 32.2137 65.344C32.5017 65.2693 32.795 65.232 33.0937 65.232C33.435 65.232 33.675 65.2907 33.8137 65.408C33.9524 65.5253 34.0217 65.728 34.0217 66.016C34.0217 66.112 34.011 66.2667 33.9897 66.48C34.8217 68.6027 35.579 71.136 36.2617 74.08C36.9017 73.056 37.4457 71.76 37.8937 70.192C38.3524 68.624 38.5817 67.2693 38.5817 66.128C38.5817 65.7547 38.5604 65.4933 38.5177 65.344ZM46.5856 71.616C46.4256 71.1787 46.2656 70.7253 46.1056 70.256C45.9562 69.776 45.7962 69.264 45.6256 68.72C45.4549 68.176 45.3376 67.8027 45.2736 67.6C44.7616 69.2107 44.2922 70.544 43.8656 71.6C44.5482 71.6213 45.0709 71.632 45.4336 71.632C45.9882 71.632 46.3722 71.6267 46.5856 71.616ZM45.0976 72.816C44.8202 72.816 44.2442 72.8053 43.3696 72.784C42.6762 74.5653 42.2496 75.7493 42.0896 76.336C41.1402 76.2293 40.6656 76.0107 40.6656 75.68C40.6656 75.5307 40.8896 74.928 41.3376 73.872C41.7962 72.8053 42.3509 71.4507 43.0016 69.808C43.6522 68.1653 44.1642 66.7093 44.5376 65.44C44.7509 65.408 45.0282 65.392 45.3696 65.392C45.6469 65.392 45.8602 65.4507 46.0096 65.568C46.1696 65.6747 46.3082 65.8987 46.4256 66.24C47.2469 68.8 47.8442 70.56 48.2176 71.52C49.0176 73.6 49.6202 75.04 50.0256 75.84C49.6202 76.0533 49.2789 76.16 49.0016 76.16C48.5536 76.16 48.2442 76.016 48.0736 75.728C47.9456 75.3973 47.7642 74.912 47.5296 74.272C47.3056 73.6213 47.1296 73.1253 47.0016 72.784C45.9562 72.8053 45.3216 72.816 45.0976 72.816ZM56.9734 74.48C57.2188 74.7787 57.5014 74.928 57.8214 74.928C57.9388 74.928 58.0614 74.912 58.1894 74.88C58.2854 75.104 58.3334 75.2907 58.3334 75.44C58.3334 75.6853 58.2001 75.8667 57.9334 75.984C57.6774 76.1013 57.3628 76.16 56.9894 76.16C56.3708 76.16 55.8214 75.856 55.3414 75.248C55.0108 74.832 54.6641 74.2613 54.3014 73.536C53.9388 72.8 53.6561 72.16 53.4534 71.616C53.2081 71.52 53.0854 71.3493 53.0854 71.104C53.0854 70.9013 53.1281 70.6933 53.2134 70.48C53.3841 70.5227 53.5814 70.544 53.8054 70.544C54.3814 70.544 54.8614 70.3733 55.2454 70.032C55.6401 69.68 55.8374 69.1627 55.8374 68.48C55.8374 67.7227 55.6508 67.2 55.2774 66.912C54.9041 66.6133 54.3228 66.464 53.5334 66.464C53.2454 66.464 52.8988 66.4853 52.4934 66.528C52.5361 67.1253 52.5574 68.1867 52.5574 69.712V72.832C52.5574 74.24 52.6588 75.2693 52.8614 75.92C52.6268 76.0053 52.2961 76.048 51.8694 76.048C51.4748 76.048 51.2028 75.9787 51.0534 75.84C50.9148 75.7013 50.8454 75.4667 50.8454 75.136C50.8454 74.9653 50.8508 74.544 50.8614 73.872C50.8721 73.2 50.8774 72.6773 50.8774 72.304V69.104C50.8774 67.632 50.8081 66.4053 50.6694 65.424C51.4908 65.296 52.3281 65.232 53.1814 65.232C56.1788 65.232 57.6774 66.3147 57.6774 68.48C57.6774 69.3013 57.4534 69.984 57.0054 70.528C56.5681 71.0613 55.9868 71.424 55.2614 71.616C55.9548 73.0987 56.5254 74.0533 56.9734 74.48ZM59.2944 75.152C59.4438 74.1813 59.5291 72.3893 59.5504 69.776C59.5504 67.9093 59.4811 66.4587 59.3424 65.424C60.0144 65.296 60.8731 65.232 61.9184 65.232C62.7824 65.232 63.5558 65.3227 64.2384 65.504C64.9318 65.6853 65.5611 65.9787 66.1264 66.384C66.7024 66.7787 67.1451 67.3387 67.4544 68.064C67.7744 68.7893 67.9344 69.6587 67.9344 70.672C67.9344 72.272 67.4918 73.5893 66.6064 74.624C65.7211 75.648 64.4571 76.16 62.8144 76.16C61.2998 76.16 60.1264 75.824 59.2944 75.152ZM61.1504 66.528C61.1931 67.2213 61.2144 68.0373 61.2144 68.976C61.2144 71.184 61.1398 72.9653 60.9904 74.32C61.5024 74.6933 62.1371 74.88 62.8944 74.88C63.4918 74.88 64.0091 74.7627 64.4464 74.528C64.8838 74.2827 65.2144 73.9627 65.4384 73.568C65.6731 73.1627 65.8438 72.7467 65.9504 72.32C66.0571 71.8827 66.1104 71.4293 66.1104 70.96C66.1104 69.4667 65.7584 68.3467 65.0544 67.6C64.3611 66.8427 63.3638 66.464 62.0624 66.464C61.8598 66.464 61.5558 66.4853 61.1504 66.528ZM75.1296 67.872C74.9696 67.4667 74.6709 67.1307 74.2336 66.864C73.7962 66.5973 73.3429 66.464 72.8736 66.464C72.3296 66.464 71.8709 66.5973 71.4976 66.864C71.1349 67.1307 70.9536 67.5253 70.9536 68.048C70.9536 68.368 71.0549 68.64 71.2576 68.864C71.4602 69.0773 71.7216 69.248 72.0416 69.376C72.3722 69.4933 72.7296 69.6053 73.1136 69.712C73.5082 69.8187 73.8976 69.9413 74.2816 70.08C74.6762 70.2187 75.0336 70.384 75.3536 70.576C75.6842 70.768 75.9509 71.0453 76.1536 71.408C76.3562 71.7707 76.4576 72.2027 76.4576 72.704C76.4576 73.3333 76.3509 73.8827 76.1376 74.352C75.9242 74.8107 75.6256 75.168 75.2416 75.424C74.8682 75.68 74.4629 75.8667 74.0256 75.984C73.5882 76.1013 73.1136 76.16 72.6016 76.16C71.7162 76.16 70.9269 76 70.2336 75.68C69.5509 75.36 69.2096 74.9813 69.2096 74.544C69.2096 74.1067 69.5189 73.744 70.1376 73.456C70.3509 73.8613 70.7189 74.2027 71.2416 74.48C71.7642 74.7573 72.2922 74.896 72.8256 74.896C73.4442 74.896 73.9562 74.7573 74.3616 74.48C74.7776 74.192 74.9856 73.76 74.9856 73.184C74.9856 72.8427 74.8469 72.5547 74.5696 72.32C74.3029 72.0853 73.9669 71.9093 73.5616 71.792C73.1562 71.6747 72.7136 71.5307 72.2336 71.36C71.7536 71.1787 71.3109 70.9867 70.9056 70.784C70.5002 70.5707 70.1589 70.2453 69.8816 69.808C69.6149 69.3707 69.4816 68.8427 69.4816 68.224C69.4816 67.2747 69.8389 66.5387 70.5536 66.016C71.2682 65.4933 72.1536 65.232 73.2096 65.232C73.6576 65.232 74.1056 65.2907 74.5536 65.408C75.0016 65.5147 75.3909 65.696 75.7216 65.952C76.0522 66.1973 76.2176 66.4853 76.2176 66.816C76.2176 67.3707 75.8549 67.7227 75.1296 67.872Z" fill="#E6C4FF"/>
</svg>
