<svg width="78" height="78" viewBox="0 0 78 78" fill="none" xmlns="http://www.w3.org/2000/svg">
<g clip-path="url(#clip0_52_210)">
<path d="M11.0231 0L0 11.0231V66.976L11.0231 78H66.9777L78 66.9769V11.024L66.9777 0H11.0231ZM12.3231 2.70833H65.6777L75.2917 12.3231V65.676L65.6777 75.2917H12.3231L2.70833 65.6769V12.324L12.3231 2.70833Z" fill="white"/>
<path d="M32.8689 53.3996H41.4483L34.8344 24.6049H22.5706L15.9194 53.3996H24.3717L25.2087 48.796H31.987L32.8689 53.3996ZM28.7287 31.8465L30.7315 42.4362H26.4642L28.3924 31.8465H28.7287ZM47.0757 53.4818C48.7123 53.6537 50.1696 53.7359 51.4476 53.7359C54.1828 53.7359 56.3276 53.4519 57.8746 52.8765C59.4216 52.301 60.5127 51.4416 61.1405 50.2832C61.7682 49.1249 62.0821 47.6078 62.0821 45.7394C62.0821 44.2074 61.9027 42.9818 61.559 42.0551C61.2077 41.1359 60.707 40.4334 60.0494 39.9476C59.3917 39.4544 58.5099 39.0732 57.3963 38.7967V38.6248C58.9284 38.2362 60.0494 37.5113 60.7593 36.4501C61.4768 35.3889 61.828 33.827 61.828 31.7643C61.828 29.9782 61.4917 28.5433 60.8266 27.4522C60.154 26.3611 59.0704 25.5615 57.5607 25.0458C56.0511 24.5301 54.0333 24.2686 51.4924 24.2686C50.2369 24.2686 48.802 24.3582 47.1803 24.5227C45.5661 24.6871 44.1386 24.8963 42.913 25.1504V31.301C45.3717 30.9946 47.681 30.8451 49.8632 30.8451C50.9767 30.8451 51.754 30.8825 52.18 30.9647C52.6134 31.0543 52.8974 31.2487 53.017 31.5551C53.144 31.8615 53.2113 32.407 53.2113 33.1842C53.2113 33.9689 53.1664 34.5145 53.0842 34.8359C53.002 35.1572 52.8002 35.3739 52.4938 35.486C52.1874 35.5981 51.6493 35.6579 50.8646 35.6579H46.7244V42.0551H50.8646C51.6493 42.0551 52.1949 42.1149 52.5163 42.227C52.8376 42.3391 53.0693 42.5707 53.2113 42.9369C53.3458 43.3031 53.4205 43.9159 53.4205 44.7754C53.4205 45.5601 53.3383 46.1131 53.1889 46.4345C53.0319 46.7558 52.7554 46.9576 52.3518 47.0398C51.9483 47.122 51.2308 47.1668 50.192 47.1668C48.1892 47.1668 45.7155 47.0248 42.786 46.7483V52.854C44.0116 53.1081 45.4465 53.3174 47.0757 53.4818Z" fill="white"/>
</g>
<defs>
<clipPath id="clip0_52_210">
<rect width="78" height="78" fill="white"/>
</clipPath>
</defs>
</svg>
